<svg id="visual" viewBox="0 0 960 540" width="100%" height="540" preserveAspectRatio="none"
    xmlns="http://www.w3.org/2000/svg"
    xmlns:xlink="http://www.w3.org/1999/xlink" version="1.1">
    <rect x="0" y="0" width="960" height="540" fill="#001220"></rect>
    <path d="M0 494L22.8 491.8C45.7 489.7 91.3 485.3 137 474.8C182.7 464.3 228.3 447.7 274 450.5C319.7 453.3 365.3 475.7 411.2 480.5C457 485.3 503 472.7 548.8 466.5C594.7 460.3 640.3 460.7 686 466.8C731.7 473 777.3 485 823 487.8C868.7 490.7 914.3 484.3 937.2 481.2L960 478L960 541L937.2 541C914.3 541 868.7 541 823 541C777.3 541 731.7 541 686 541C640.3 541 594.7 541 548.8 541C503 541 457 541 411.2 541C365.3 541 319.7 541 274 541C228.3 541 182.7 541 137 541C91.3 541 45.7 541 22.8 541L0 541Z" fill="#2b91de"></path>
    <path d="M0 486L22.8 489.2C45.7 492.3 91.3 498.7 137 494.5C182.7 490.3 228.3 475.7 274 467.5C319.7 459.3 365.3 457.7 411.2 464.5C457 471.3 503 486.7 548.8 489.7C594.7 492.7 640.3 483.3 686 481.5C731.7 479.7 777.3 485.3 823 489.5C868.7 493.7 914.3 496.3 937.2 497.7L960 499L960 541L937.2 541C914.3 541 868.7 541 823 541C777.3 541 731.7 541 686 541C640.3 541 594.7 541 548.8 541C503 541 457 541 411.2 541C365.3 541 319.7 541 274 541C228.3 541 182.7 541 137 541C91.3 541 45.7 541 22.8 541L0 541Z" fill="#25486a"></path>
    <path d="M0 482L22.8 484.2C45.7 486.3 91.3 490.7 137 494.8C182.7 499 228.3 503 274 501.3C319.7 499.7 365.3 492.3 411.2 488.3C457 484.3 503 483.7 548.8 486.8C594.7 490 640.3 497 686 502.3C731.7 507.7 777.3 511.3 823 507.5C868.7 503.7 914.3 492.3 937.2 486.7L960 481L960 541L937.2 541C914.3 541 868.7 541 823 541C777.3 541 731.7 541 686 541C640.3 541 594.7 541 548.8 541C503 541 457 541 411.2 541C365.3 541 319.7 541 274 541C228.3 541 182.7 541 137 541C91.3 541 45.7 541 22.8 541L0 541Z" fill="#050505"></path>
</svg>